<svg viewBox="-100 -100 200 200" width="256px" height="256px" stroke="#8c00ff" strokeWidth="2" fill="#9494e4" xmlns="http://www.w3.org/2000/svg">
    <path
        d="M2.4194810670216835,-16.05220803413656C3.575908803772967,-15.696051196708645,5.053235093523973,-20.021520517914958,6.7788711425271275,-21.976560481673133C8.755441841661693,-24.215894036528905,10.785787846663107,-25.47808644834961,13.781148332289364,-28.616849381336035C20.00892955165508,-35.14278472030315,39.96022358024816,-60.966907322230234,41.0401474134037,-60.19484059054879C42.22280995813522,-59.349323177598635,13.383670573920284,-19.506371549530073,15.781371291332455,-17.00827322639474C17.25120658189153,-15.476892329702292,26.020636411401558,-23.151389022552397,32.38602958917461,-25.82699676892489C40.265312846569635,-29.13894792898265,59.15828815554157,-35.95112777042352,59.841454127731254,-34.54947964934427C60.70543238686975,-32.776859886545836,30.049954229648904,-14.001051133548946,21.799516281468303,-8.555679672526258C17.883485829676232,-5.971060456356433,12.664545299801004,-4.1899412175113415,13.045643415208747,-2.9775829787422268C13.965207881823753,-0.05224298857396416,62.03187382156299,-10.2886281365961,73.42810673393473,-5.502675885924159C79.27234815358221,-3.048333245605925,85.05747361748243,3.4527201984293363,84.07222123548271,6.300341994992115C82.66030864197822,10.3811167787532,53.861095605925584,7.52672311148555,51.90747957084603,11.847543484085623C50.66600030628545,14.593328122496134,60.01696766628434,21.42797039411604,58.80539054036142,23.079415065225046C56.849807841741516,25.744979276903823,28.36226763545811,12.145803549688345,25.49842307105811,14.72152142398637C24.263420750695012,15.832272192691322,25.22216692088894,18.238111026374145,26.389679398160993,21.0450670611716C29.674492616875863,28.942478409612058,57.911063873360355,53.388259828474254,56.91466391332366,61.33941953180583C56.41906193549889,65.29426761793647,51.08347971459288,69.42289357892506,47.136468547935195,69.13650142781145C39.93219916955072,68.61376507937986,25.856985908374817,47.4376659083992,18.651262014184663,38.72974464553129C13.69167945176297,32.73622406599838,9.992625342439439,28.09593288090791,7.0261393915834205,22.778184456569527C4.435814730550426,18.134746020342245,2.701174212603071,8.590893785238226,1.333408040906646,8.84658431874894C-1.6761477404759233,9.409191392454783,0.6226132214349795,81.69327915570534,1.000514536267079e-14,81.69821184064467C-0.595440450138705,81.70292924792027,1.2098176556845968,15.728013656440645,-2.2751224105969694,15.094450928266552C-4.369994292772491,14.713602844912712,-7.560199092010486,33.19970634507265,-11.51544632491714,37.33216007682642C-13.961573653831739,39.88788097452854,-16.55013628473324,38.90139068751715,-19.858003003126903,41.235568129190746C-26.567070289207226,45.969783515427274,-44.25492431733406,69.58008443126076,-46.48907861647932,68.18695479652459C-48.49998912521906,66.9330310977006,-41.8637075744329,48.67213641476939,-36.37687788726207,39.20495036889227C-29.818817207017506,27.889421347607822,-6.378942237763435,7.930565342721133,-7.633588431852504,6.087583636082934C-8.167657789468194,5.303075572535694,-11.41176825119038,7.431237182624452,-15.126032733709081,8.73301907057802C-25.86412187361503,12.496523263494657,-73.3088678203608,34.95734216703631,-77.85033926333581,30.554006636413874C-79.96744494975391,28.501296009881614,-77.43818537335594,20.69876456541333,-73.5314592522425,16.78307573670958C-66.33182238516969,9.566921653431791,-26.57213363818335,5.680270999369281,-26.79614377226205,2.008093368193006C-26.98980235790645,-1.1665341066461155,-62.90470639038423,-3.3289759315758967,-62.808153088886385,-4.706820382744858C-62.71331302778449,-6.0602163817485035,-28.77012645860311,-3.134480559129994,-27.49880673448508,-6.276423190662123C-26.826570664054287,-7.937789035989022,-33.70790119310575,-11.063578934467197,-34.288145651555666,-13.457105514263992C-34.72706120784457,-15.267645942466043,-33.858292800796896,-17.54591642674981,-32.71613283867628,-18.88866810125331C-31.513657948242635,-20.302327506438846,-27.535309053236706,-19.709920034844526,-27.053209046876574,-21.574214298756765C-25.820201826640222,-26.34228784723937,-52.687942350798345,-49.57374095950441,-50.93593740244273,-54.895884799256855C-50.00270017179665,-57.73082130030533,-43.7482586791973,-58.34937223006645,-39.86853404670429,-58.476399398517565C-35.65069370687221,-58.61449690957815,-30.762822469123265,-58.11704384458628,-26.5392409479367,-55.109301677179225C-20.012531271565926,-50.461431188691776,-11.64210555521166,-27.04094875646247,-8.531698679965391,-27.659087790503772C-6.573210295692186,-28.048303146112158,-7.024042541072448,-34.95774075229355,-6.096113089729406,-40.44506768404584C-4.435705246355374,-50.26391831267058,-1.4159010133438124,-81.7495043333209,0,-81.67158653337479C1.7772958394431375,-81.57378098033283,-1.0357592836226746,-17.116353623809044,2.4194810670216835,-16.05220803413656"
    />
</svg>
